<!-- icon666.com - MILLIONS vector ICONS FREE --><svg viewBox="-86 0 512 512.00028" xmlns="http://www.w3.org/2000/svg"><path d="m170.585938 0c-.34375 0-.683594.0078125-1.023438.0078125l-20.015625 404.4374995 101.074219-20.015624v-65.910157c52.726562-28.75 88.5-84.675781 88.5-148.960937 0-93.304688-75.363282-169.007813-168.535156-169.558594zm0 0" fill="#ffda44"/><path d="m0 169.5625c0 64.28125 35.777344 120.207031 88.5 148.957031v65.910157l81.0625 20.015624v-404.4374995c-93.09375.0078125-169.5625 76.3398435-169.5625 169.5546875zm0 0" fill="#fff1b6"/><path d="m244.609375 196.875-21.210937-21.210938-53.835938 53.835938-53.835938-53.835938-21.214843 21.210938 60.050781 60.050781v147.519531h30v-147.519531zm0 0" fill="#ff9100"/><path d="m169.5625 512c27.152344 0 49.164062-22.011719 49.164062-49.167969v-14.617187l-69.179687-20.015625zm0 0" fill="#87a0af"/><path d="m120.394531 462.832031c0 27.15625 22.011719 49.167969 49.164063 49.167969v-83.800781l-49.164063 20.015625zm0 0" fill="#b4d2d7"/><path d="m250.621094 384.429688h-81.058594l-20.015625 31.890624 20.015625 31.894532h81.058594zm0 0" fill="#b4d2d7"/><path d="m88.5 384.429688h81.0625v63.785156h-81.0625zm0 0" fill="#e1ebf0"/></svg>
